<?xml version="1.0" encoding="UTF-8"?>
<svg version="1.1" xmlns="http://www.w3.org/2000/svg" width="1025" height="769">
<path d="M0 0 C338.25 0 676.5 0 1025 0 C1025 253.77 1025 507.54 1025 769 C686.75 769 348.5 769 0 769 C0 515.23 0 261.46 0 0 Z " fill="#000000" transform="translate(0,0)"/>
<path d="M0 0 C64.02 0 128.04 0 194 0 C199.6842613 18.18963616 199.6842613 18.18963616 201.5625 26.625 C202.90639448 32.46398982 204.30012065 38.25181361 206 44 C207.95277279 50.61423042 209.53998233 57.29420832 211.07421875 64.015625 C212.21515453 68.94691789 213.49949283 73.81036373 214.91015625 78.671875 C216.92742364 85.64010104 218.70586269 92.65495655 220.43380737 99.6986084 C223.75865136 113.2708022 223.75865136 113.2708022 227.4375 126.75 C230.25749504 136.57004393 232.64239747 146.50289216 235.09921265 156.41836548 C237.38492405 165.63707705 239.71012468 174.82925967 242.33032227 183.9597168 C243.8686332 189.37342639 245.16574072 194.8306585 246.4375 200.3125 C248.09177048 207.44115136 249.9423637 214.47728339 252 221.5 C254.12795119 228.77175592 256.06237266 236.06528218 257.8125 243.4375 C258.1228418 244.74267578 258.1228418 244.74267578 258.43945312 246.07421875 C259.44609933 250.3855116 260.26997016 254.61982096 261 259 C174.87 259 88.74 259 0 259 C0 173.53 0 88.06 0 0 Z " fill="#FCFCFC" transform="translate(274,188)"/>
<path d="M0 0 C31.68 0 63.36 0 96 0 C100.73011666 17.73793748 105.43085484 35.44938975 109.78979492 53.27563477 C112.25619974 63.34273501 114.89316495 73.31936624 117.89233398 83.24169922 C119.35612823 88.20833985 120.62074791 93.21400879 121.83984375 98.24609375 C127.00487971 119.53416319 127.00487971 119.53416319 132.6875 140.6875 C135.0181567 149.06526599 137.00829361 157.53524783 139 166 C93.13 166 47.26 166 0 166 C0 111.22 0 56.44 0 0 Z " fill="#010202" transform="translate(330,243)"/>
<path d="M0 0 C18.48 0 36.96 0 56 0 C55.36228778 7.6525466 54.64149384 14.97253659 53.32421875 22.48828125 C53.15186203 23.49699783 52.97950531 24.50571442 52.80192566 25.54499817 C52.41665205 27.79666797 52.02909049 30.04794714 51.6395874 32.29888916 C50.95394953 36.26648098 50.27614314 40.23535517 49.60009766 44.20458984 C48.15086472 52.70793188 46.69417028 61.20998697 45.23677444 69.71193314 C43.93273434 77.32077808 42.63045004 84.92992386 41.328125 92.5390625 C41.184657 93.37723322 41.041189 94.21540394 40.89337349 95.07897377 C38.27033465 110.40465784 35.66169837 125.73275315 33.0625 141.0625 C30.74128923 154.75210714 28.41522614 168.44077227 26.0625 182.125 C21.65871174 207.74151475 17.33965511 233.37257727 13 259 C-5.81 259 -24.62 259 -44 259 C-41.69940476 244.04613094 -41.69940476 244.04613094 -40.52294922 236.9765625 C-40.38904533 236.1682451 -40.25514145 235.35992769 -40.11717987 234.52711582 C-39.68052267 231.89293699 -39.24268491 229.25895629 -38.8046875 226.625 C-38.49296083 224.7477993 -38.18124434 222.87059691 -37.86953735 220.99339294 C-36.87302688 214.99531715 -35.8741458 208.99763727 -34.875 203 C-34.62065689 201.47239485 -34.62065689 201.47239485 -34.36117554 199.91392899 C-29.81846996 172.63169668 -25.20649241 145.36808996 -20.27877808 118.1524353 C-18.37041236 107.57010719 -16.5963698 96.96443197 -14.80404663 86.36196899 C-13.10265507 76.30660318 -11.32827494 66.2777568 -9.34667969 56.27319336 C-7.8157211 48.37784481 -6.67507664 40.42626828 -5.56958008 32.46142578 C-4.02834055 21.55848918 -1.97679413 10.8723677 0 0 Z " fill="#FDFDFD" transform="translate(712,188)"/>
<path d="M0 0 C17.82 0 35.64 0 54 0 C54 85.47 54 170.94 54 259 C36.18 259 18.36 259 0 259 C0 173.53 0 88.06 0 0 Z " fill="#FEFEFE" transform="translate(570,188)"/>
<path d="M0 0 C4.62 0 9.24 0 14 0 C14.96182616 4.41593144 15.9195455 8.83268941 16.875 13.25 C17.14441406 14.48492188 17.41382813 15.71984375 17.69140625 16.9921875 C19.34034126 24.63359364 20.79850421 32.27533109 22 40 C24.80891889 26.69055881 27.55530382 13.3814949 30 0 C34.95 0 39.9 0 45 0 C45.96316591 4.39482305 46.92063542 8.79076458 47.875 13.1875 C48.14441406 14.41404297 48.41382813 15.64058594 48.69140625 16.90429688 C50.42199004 24.90297074 51.85705974 32.89636616 53 41 C53.13575439 40.25540527 53.27150879 39.51081055 53.41137695 38.74365234 C58.20656702 12.49693703 58.20656702 12.49693703 61 0 C65.29 0 69.58 0 74 0 C73.2625686 5.85937343 72.06700698 11.557774 70.75 17.3125 C70.53037598 18.27655762 70.31075195 19.24061523 70.08447266 20.23388672 C68.31613878 27.87736829 66.28943482 35.4260536 64.13671875 42.96875 C62.62309637 48.27970572 61.30690902 53.63479456 60 59 C55.05 59 50.1 59 45 59 C42.36 45.8 39.72 32.6 37 19 C34.74015125 30.66725179 34.74015125 30.66725179 32.48266602 42.33496094 C32.19816483 43.80144886 31.91358364 45.26792127 31.62890625 46.734375 C31.48287964 47.49121582 31.33685303 48.24805664 31.18640137 49.02783203 C30.53480508 52.37953242 29.82846485 55.6861406 29 59 C24.05 59 19.1 59 14 59 C8.79203743 39.44702811 3.96944308 19.8472154 0 0 Z " fill="#F8F8F8" transform="translate(568,544)"/>
<path d="M0 0 C1.06250977 -0.00386719 1.06250977 -0.00386719 2.14648438 -0.0078125 C3.2205957 0.00378906 3.2205957 0.00378906 4.31640625 0.015625 C5.02861328 0.00789062 5.74082031 0.00015625 6.47460938 -0.0078125 C13.39807738 0.01734088 20.20385236 1.00933458 25.87890625 5.265625 C29.99015512 9.94788065 31.23314658 12.68766163 31.1640625 18.81640625 C30.47812533 24.70794875 27.33146085 29.44914963 22.87890625 33.265625 C23.471875 33.89210938 24.06484375 34.51859375 24.67578125 35.1640625 C27.53126982 39.18402336 28.73562375 43.19895945 30.12890625 47.890625 C30.39703125 48.74914062 30.66515625 49.60765625 30.94140625 50.4921875 C32.87890625 56.81871811 32.87890625 56.81871811 32.87890625 60.265625 C28.25890625 60.265625 23.63890625 60.265625 18.87890625 60.265625 C18.564375 59.01265625 18.24984375 57.7596875 17.92578125 56.46875 C17.49420976 54.81751994 17.0618781 53.16648842 16.62890625 51.515625 C16.42394531 50.690625 16.21898437 49.865625 16.0078125 49.015625 C14.38482777 42.7268821 14.38482777 42.7268821 9.87890625 38.265625 C6.41390625 37.770625 6.41390625 37.770625 2.87890625 37.265625 C2.87890625 44.855625 2.87890625 52.445625 2.87890625 60.265625 C-1.74109375 60.265625 -6.36109375 60.265625 -11.12109375 60.265625 C-11.12109375 41.125625 -11.12109375 21.985625 -11.12109375 2.265625 C-3.23226292 0.01167333 -3.23226292 0.01167333 0 0 Z " fill="#F5F5F5" transform="translate(807.12109375,542.734375)"/>
<path d="M0 0 C5.94 0 11.88 0 18 0 C22.61577419 13.65090664 27.16465637 27.31884508 31.46072388 41.07388306 C32.05645215 42.98064254 32.65601445 44.88620277 33.25561523 46.79174805 C33.79617554 48.53452026 33.79617554 48.53452026 34.34765625 50.3125 C34.66742432 51.33988281 34.98719238 52.36726562 35.31665039 53.42578125 C36 56 36 56 36 59 C31.38 59 26.76 59 22 59 C18 47.375 18 47.375 18 44 C12.06 44 6.12 44 0 44 C-0.33 46.31 -0.66 48.62 -1 51 C-1.59198088 53.69200063 -2.29819708 56.33314892 -3 59 C-7.62 59 -12.24 59 -17 59 C-15.70227895 51.99482616 -14.00545473 45.29401713 -11.875 38.5 C-11.57585693 37.5318335 -11.27671387 36.56366699 -10.96850586 35.56616211 C-10.32553076 33.48604584 -9.68053 31.40655483 -9.03369141 29.32763672 C-7.5620602 24.59019379 -6.10720051 19.84763596 -4.65087891 15.10546875 C-3.10380382 10.06931943 -1.55191658 5.03465925 0 0 Z " fill="#F9F9F9" transform="translate(738,544)"/>
<path d="M0 0 C5.94 0 11.88 0 18 0 C20.22418033 6.95195539 22.44221581 13.90579979 24.64957428 20.86311626 C25.67484953 24.09381146 26.70276458 27.32361586 27.73681641 30.55151367 C28.92626393 34.26489905 30.10404493 37.98193328 31.28125 41.69921875 C31.65310425 42.85459641 32.0249585 44.00997406 32.40808105 45.20036316 C32.74843384 46.28110611 33.08878662 47.36184906 33.43945312 48.4753418 C33.7414563 49.42354294 34.04345947 50.37174408 34.35461426 51.34867859 C35 54 35 54 35 59 C30.38 59 25.76 59 21 59 C19.68 54.38 18.36 49.76 17 45 C11.39 44.67 5.78 44.34 0 44 C-0.309375 45.7325 -0.61875 47.465 -0.9375 49.25 C-1.52633977 52.54750269 -2.18663341 55.74653364 -3 59 C-7.62 59 -12.24 59 -17 59 C-16.31855033 52.67225307 -14.62366853 46.77724009 -12.8125 40.6875 C-12.50151367 39.63095215 -12.19052734 38.5744043 -11.87011719 37.48583984 C-9.5102687 29.54085656 -6.95896392 21.67341522 -4.2890625 13.828125 C-2.73496381 9.25405287 -1.34684889 4.63914619 0 0 Z " fill="#F8F8F8" transform="translate(383,544)"/>
<path d="M0 0 C11.88 0 23.76 0 36 0 C36 3.63 36 7.26 36 11 C28.74 11 21.48 11 14 11 C14 14.96 14 18.92 14 23 C20.93 23 27.86 23 35 23 C35 26.63 35 30.26 35 34 C27.74 34 20.48 34 13 34 C13 38.62 13 43.24 13 48 C21.25 48 29.5 48 38 48 C38 51.63 38 55.26 38 59 C25.46 59 12.92 59 0 59 C0 39.53 0 20.06 0 0 Z " fill="#F7F7F7" transform="translate(664,544)"/>
<path d="M0 0 C1.41687119 4.25061356 0.19320039 6.71851625 -1 11 C-1.7425 10.835 -2.485 10.67 -3.25 10.5 C-8.46838047 9.80421594 -13.74778991 9.53610719 -19 10 C-21.34973818 11.89755144 -21.34973818 11.89755144 -21.125 15.125 C-21.063125 16.548125 -21.063125 16.548125 -21 18 C-19.88625 18.556875 -18.7725 19.11375 -17.625 19.6875 C-16.53445313 20.24050781 -16.53445313 20.24050781 -15.421875 20.8046875 C-13.78171687 21.6141849 -12.12431576 22.38949146 -10.453125 23.1328125 C-4.88696579 25.67975202 0.38483645 28.18739039 3 34 C3.93641319 39.85989816 3.84917702 45.01858694 1.5 50.5 C-4.66753575 56.66753575 -10.46963647 59.12486221 -19.125 59.25 C-25.2074072 59.22250889 -30.33305649 58.14908919 -36 56 C-35.85904936 54.3745692 -35.71207913 52.74965949 -35.5625 51.125 C-35.48128906 50.22007812 -35.40007813 49.31515625 -35.31640625 48.3828125 C-35 46 -35 46 -34 44 C-33.46632813 44.2165625 -32.93265625 44.433125 -32.3828125 44.65625 C-25.64316277 47.17487343 -18.9609143 48.32030477 -12 46 C-11.0636079 42.70054409 -11.0636079 42.70054409 -11 39 C-13.71757455 35.72016865 -16.92341342 34.61589908 -20.8125 33.1875 C-27.01244549 30.83355956 -32.0517734 27.24704433 -35.5 21.5 C-36.69871124 15.50644379 -36.39972745 11.15442548 -33 6 C-24.00582455 -3.30508522 -12.02465256 -4.39362305 0 0 Z " fill="#F8F8F8" transform="translate(897,545)"/>
<path d="M0 0 C1.2684375 0.7425 1.2684375 0.7425 2.5625 1.5 C1.9025 4.47 1.2425 7.44 0.5625 10.5 C-3.4375 11.5 -3.4375 11.5 -6.4375 10.5 C-8.26712436 10.35671616 -10.10251237 10.27959657 -11.9375 10.25 C-13.37609375 10.21132813 -13.37609375 10.21132813 -14.84375 10.171875 C-17.44174232 10.31458505 -17.44174232 10.31458505 -19.34375 11.703125 C-20.66031987 13.50925381 -20.66031987 13.50925381 -20.41015625 16.02734375 C-19.1469701 19.238576 -17.9963325 19.69483217 -14.875 21.0625 C-13.52148438 21.68511719 -13.52148438 21.68511719 -12.140625 22.3203125 C-10.80257813 22.90425781 -10.80257813 22.90425781 -9.4375 23.5 C-3.03343403 26.30453924 1.31432734 29.00365468 4.5625 35.5 C5.09089495 41.71880209 5.28743456 47.23371321 1.5625 52.5 C-4.43683717 58.49933717 -10.8198159 59.69734546 -19 59.875 C-30.27610518 59.66139482 -30.27610518 59.66139482 -34.4375 55.5 C-34.38671875 53.50390625 -34.38671875 53.50390625 -34.125 51.0625 C-34.04636719 50.25941406 -33.96773438 49.45632813 -33.88671875 48.62890625 C-33.4375 46.5 -33.4375 46.5 -31.4375 44.5 C-30.32375 44.995 -29.21 45.49 -28.0625 46 C-22.32202989 48.16930421 -16.27132458 48.44460819 -10.4375 46.5 C-10.1075 44.19 -9.7775 41.88 -9.4375 39.5 C-13.71485562 36.69223863 -17.99490406 34.18662702 -22.625 32 C-27.53353305 29.58720342 -31.00309558 27.02728398 -33.75 22.1875 C-35.09864677 16.91551718 -35.2632168 13.11967525 -32.8125 8.3125 C-24.62577984 -1.38230019 -12.23763185 -5.30213618 0 0 Z " fill="#F8F8F8" transform="translate(511.4375,544.5)"/>
<path d="M0 0 C-0.14107747 1.45880109 -0.28802415 2.91703551 -0.4375 4.375 C-0.51871094 5.18710937 -0.59992188 5.99921875 -0.68359375 6.8359375 C-1 9 -1 9 -2 11 C-2.78375 10.835 -3.5675 10.67 -4.375 10.5 C-11.75660194 9.48184801 -18.4144092 8.99699383 -25 13 C-28.71577415 15.97073314 -29.84904252 18.80955457 -30.4453125 23.51171875 C-30.65561301 30.55678572 -30.80994284 37.43134594 -26 43 C-20.3097017 47.64514147 -15.14890853 47.56890714 -8 47 C-5.99079847 46.72756589 -3.98179275 46.42849573 -2 46 C-0.37049588 50.12168689 0.26264601 52.70700357 -1 57 C-9.65756118 60.29811855 -20.33566315 60.50045866 -28.9765625 57.03125 C-36.8941286 52.99604257 -41.721499 47.71713932 -44.6015625 39.2265625 C-46.38222878 29.27578036 -46.05808125 19.37094996 -40.90234375 10.52734375 C-37.81575383 6.42667912 -34.40590228 3.59796307 -30 1 C-29.39671875 0.64164063 -28.7934375 0.28328125 -28.171875 -0.0859375 C-19.63600871 -4.13119587 -8.71314547 -2.81467119 0 0 Z " fill="#F8F8F8" transform="translate(189,545)"/>
<path d="M0 0 C4.62 0 9.24 0 14 0 C14 15.84 14 31.68 14 48 C21.59 48 29.18 48 37 48 C37 51.63 37 55.26 37 59 C24.79 59 12.58 59 0 59 C0 39.53 0 20.06 0 0 Z " fill="#F5F5F5" transform="translate(310,544)"/>
<path d="M0 0 C4.62 0 9.24 0 14 0 C14 15.84 14 31.68 14 48 C21.59 48 29.18 48 37 48 C37 51.63 37 55.26 37 59 C24.79 59 12.58 59 0 59 C0 39.53 0 20.06 0 0 Z " fill="#F5F5F5" transform="translate(251,544)"/>
<path d="M0 0 C4.62 0 9.24 0 14 0 C14 19.47 14 38.94 14 59 C9.38 59 4.76 59 0 59 C0 39.53 0 20.06 0 0 Z " fill="#F2F2F2" transform="translate(212,544)"/>
<path d="M0 0 C1.65322266 0.01740234 1.65322266 0.01740234 3.33984375 0.03515625 C4.99693359 0.04869141 4.99693359 0.04869141 6.6875 0.0625 C7.54214844 0.07410156 8.39679688 0.08570313 9.27734375 0.09765625 C8.5782708 4.52227651 7.06871048 8.5267539 5.40234375 12.66015625 C5.14582031 13.31951172 4.88929688 13.97886719 4.625 14.65820312 C1.91503322 21.43312006 1.91503322 21.43312006 -0.72265625 24.09765625 C-4.41015625 24.34765625 -4.41015625 24.34765625 -7.72265625 24.09765625 C-7.17035946 18.85083672 -6.17518262 14.18149855 -4.72265625 9.09765625 C-4.51143398 7.64256948 -4.3239546 6.18384154 -4.16015625 4.72265625 C-3.60578959 0.12933248 -3.60578959 0.12933248 0 0 Z " fill="#F4F4F4" transform="translate(445.72265625,542.90234375)"/>
<path d="M0 0 C3.41089411 0.04903841 5.59890045 0.41187712 8.375 2.4375 C10.8125 5.375 10.8125 5.375 11.4375 8.9375 C10.72795294 12.84000885 9.95632662 14.03958594 6.8125 16.375 C3.93038698 17.33570434 2.11399956 17.48081883 -0.875 17.4375 C-2.08736328 17.42396484 -2.08736328 17.42396484 -3.32421875 17.41015625 C-3.93910156 17.39855469 -4.55398438 17.38695312 -5.1875 17.375 C-5.21434679 14.72909986 -5.23426357 12.08346904 -5.25 9.4375 C-5.25837891 8.68275391 -5.26675781 7.92800781 -5.27539062 7.15039062 C-5.28402441 5.22505687 -5.23974333 3.29964419 -5.1875 1.375 C-3.63766739 -0.17483261 -2.15081622 0.09367039 0 0 Z " fill="#0E0F0E" transform="translate(814.1875,552.625)"/>
<path d="M0 0 C2.91340833 2.91340833 3.52059782 6.50959237 4.625 10.375 C4.85445312 11.14328125 5.08390625 11.9115625 5.3203125 12.703125 C6.38977785 16.38259506 7 19.10175248 7 23 C3.04 23 -0.92 23 -5 23 C-4.354523 15.09290669 -2.13002861 7.60866033 0 0 Z " fill="#0E0E0E" transform="translate(746,555)"/>
<path d="M0 0 C2.80634432 2.80634432 3.18428557 6.06255777 4.0625 9.8125 C4.23587891 10.52470703 4.40925781 11.23691406 4.58789062 11.97070312 C5.47341952 15.63835346 6.25941599 19.29707995 7 23 C3.04 23 -0.92 23 -5 23 C-4.44636539 14.97229811 -2.34312056 7.66145933 0 0 Z " fill="#0C0D0D" transform="translate(391,555)"/>
</svg>
