<?xml version="1.0" standalone="no"?>
<!DOCTYPE svg PUBLIC "-//W3C//DTD SVG 20010904//EN"
 "http://www.w3.org/TR/2001/REC-SVG-20010904/DTD/svg10.dtd">
<svg version="1.0" xmlns="http://www.w3.org/2000/svg"
 width="1117.000000pt" height="960.000000pt" viewBox="0 0 1117.000000 960.000000"
 preserveAspectRatio="xMidYMid meet">
<metadata>
Created by potrace 1.16, written by Peter Selinger 2001-2019
</metadata>
<g transform="translate(0.000000,960.000000) scale(0.100000,-0.100000)"
fill="#000000" stroke="none">
<path d="M0 4800 l0 -4800 5585 0 5585 0 0 4800 0 4800 -5585 0 -5585 0 0
-4800z m5420 1713 c5 -21 107 -432 226 -913 118 -481 221 -896 229 -922 7 -25
11 -49 8 -52 -4 -3 -393 -6 -865 -6 l-858 0 0 965 0 965 625 0 624 0 11 -37z
m1110 -928 l0 -965 -192 2 -193 3 1 590 c1 325 2 758 3 963 l1 372 190 0 190
0 0 -965z m1050 953 c0 -6 -38 -219 -85 -472 -47 -254 -119 -641 -160 -861
-41 -220 -82 -442 -91 -492 l-17 -93 -198 0 c-110 0 -199 3 -199 8 0 4 29 165
65 357 93 502 156 842 227 1228 l62 337 198 0 c145 0 198 -3 198 -12z m-4006
-2656 c3 -5 2 -18 -1 -30 -4 -19 -12 -22 -52 -22 -60 0 -91 -29 -98 -93 -10
-85 43 -145 116 -131 23 5 29 2 34 -17 4 -13 2 -28 -3 -33 -16 -16 -115 -10
-149 10 -93 55 -93 247 1 304 34 20 141 29 152 12z m274 -164 l2 -168 -35 0
-35 0 0 171 0 170 33 -3 32 -3 3 -167z m282 32 l0 -140 55 0 c54 0 55 0 55
-30 l0 -30 -90 0 -90 0 0 170 0 170 35 0 35 0 0 -140z m370 0 l0 -140 60 0 60
0 0 -30 0 -30 -90 0 -90 0 0 170 0 170 30 0 30 0 0 -140z m474 123 c13 -42 86
-313 86 -318 0 -3 -16 -5 -35 -5 -33 0 -35 2 -46 45 -11 45 -12 45 -54 45 -42
0 -43 0 -54 -45 -11 -43 -13 -45 -47 -45 -29 0 -35 3 -30 16 3 9 25 85 48 170
l41 154 43 0 c32 0 44 -4 48 -17z m711 6 c4 -5 4 -20 1 -32 -5 -20 -11 -22
-54 -19 -38 3 -51 0 -55 -12 -10 -26 2 -42 43 -61 72 -32 100 -81 80 -139 -15
-45 -52 -68 -110 -68 -73 0 -91 8 -84 40 9 36 7 35 48 24 45 -13 74 -6 82 21
7 22 -6 36 -76 80 -66 42 -74 115 -17 159 25 20 131 25 142 7z m515 4 c0 -13
30 -186 37 -213 4 -19 9 -9 19 45 36 185 32 175 69 175 28 0 34 -4 39 -27 7
-33 35 -201 37 -217 1 -6 11 45 23 114 l21 125 37 3 36 3 -13 -53 c-7 -29 -25
-106 -40 -171 l-27 -118 -37 3 -36 3 -22 115 c-11 63 -22 111 -23 105 -1 -5
-11 -57 -23 -115 l-22 -105 -37 -3 c-32 -3 -38 0 -43 20 -24 106 -65 300 -65
308 0 5 16 10 35 10 19 0 35 -3 35 -7z m680 -23 c0 -30 0 -30 -56 -30 l-55 0
3 -37 3 -38 53 -3 c48 -3 52 -5 52 -28 0 -23 -3 -24 -55 -24 l-55 0 0 -45 0
-45 60 0 60 0 0 -30 0 -30 -95 0 -95 0 0 170 0 170 90 0 90 0 0 -30z m379 -17
c6 -27 26 -103 44 -170 l34 -123 -36 0 c-35 0 -37 2 -49 46 l-12 45 -43 -3
c-41 -3 -42 -4 -51 -45 -8 -40 -11 -43 -42 -43 -19 0 -34 3 -34 6 0 10 82 319
87 327 2 4 24 7 48 7 l43 0 11 -47z m436 37 c31 -12 58 -69 49 -104 -3 -13
-15 -34 -26 -45 -16 -18 -17 -25 -8 -37 7 -8 21 -44 30 -80 l18 -65 -36 3
c-32 3 -37 7 -45 38 -17 64 -28 88 -47 93 -27 7 -30 1 -30 -70 l0 -63 -35 0
-35 0 0 163 c0 90 3 167 7 170 10 11 129 8 158 -3z m423 1 c8 -5 11 -17 7 -33
-6 -23 -10 -25 -54 -20 -38 3 -49 1 -54 -12 -10 -26 2 -42 49 -67 25 -13 52
-32 60 -43 21 -30 17 -89 -7 -119 -20 -26 -84 -51 -110 -43 -8 2 -27 7 -42 11
-26 5 -28 9 -22 33 9 35 5 33 48 21 46 -13 77 2 77 36 0 19 -10 30 -50 50 -83
42 -104 127 -43 175 27 21 114 28 141 11z"/>
<path d="M4550 5585 l0 -585 413 0 c228 0 416 2 419 5 3 3 -57 256 -133 563
-76 306 -141 567 -144 580 l-5 22 -275 0 -275 0 0 -585z"/>
</g>
</svg>
